{"title":"As I Was Moving Ahead... (Jonas Mekas, 2000)","uid":9159256,"size":4592067185,"categoryP":"video","categoryS":"movies","magnet":"?xt=urn:btih:bbb2ee9ea7fe72a87ff7f3a7ec79fe3b34f934dd&amp;dn=As+I+Was+Moving+Ahead...+%28Jonas+Mekas%2C+2000%29&amp;tr=udp%3A%2F%2Ftracker.openbittorrent.com%3A80&amp;tr=udp%3A%2F%2Fopen.demonii.com%3A1337&amp;tr=udp%3A%2F%2Ftracker.coppersurfer.tk%3A6969&amp;tr=udp%3A%2F%2Fexodus.desync.com%3A6969","seeders":22,"leechers":1,"uploader":"tonioferah","files":2,"time":1383843987,"description":"A pivotal figure in the American avant-garde cinema, Jonas Mekas has been active and influential as a filmmaker, critic, distributor, and champion of independent cinema since the early '60s, and this feature assembles over four hours of home movies from Mekas' personal archives into what he describes as &quot;the ultimate Dogma movie, before the birth of Dogma.&quot; As I Was Moving Ahead Occasionally I Saw Brief Glimpses of Beauty offers a long glimpse into the life of Jonas Mekas as he spends time with his wife, his children, and his friends (among them fellow filmmakers Hollis Frampton and P. Adams Sitney) and travels from his home in New York City to various spots around the United States and Europe, all captured with an intimacy and immediacy that the filmmaker regards as more vitally important than a more polished technique. As I Was Moving Ahead... was exhibited at the 2001 Berlin Film Festival as part of their Forum of New Cinema series. ~ Mark Deming, Rovi\n\n\n___________________________________________________\n\n\nGeneral\nComplete name                    : As.I.Was.Moving.Ahead.Occasionally.I.Saw.Brief.Glimpses.of.Beauty.2000.Reels.1-6.DVDRip.x264.mkv\nFormat                           : Matroska\nFile size                        : 2.11 GiB\nDuration                         : 2h 15mn\nOverall bit rate                 : 2 222 Kbps\nWriting application              : HandBrake 0.9.6\nWriting library                  : libmkv 0.6.5\n\nVideo\nID                               : 1\nFormat                           : AVC\nFormat/Info                      : Advanced Video Codec\nFormat profile                   : &lt;a class=&quot;__cf_email__&quot; href=&quot;/cdn-cgi/l/email-protection&quot; data-cfemail=&quot;a7efcec0cfe7eb948996&quot;&gt;[email&amp;#160;protected]&lt;/a&gt;&lt;script cf-hash='f9e31' type=&quot;text/javascript&quot;&gt;\n/* &lt;![CDATA[ */!function(){try{var t=&quot;currentScript&quot;in document?document.currentScript:function(){for(var t=document.getElementsByTagName(&quot;script&quot;),e=t.length;e--;)if(t[e].getAttribute(&quot;cf-hash&quot;))return t[e]}();if(t&amp;&amp;t.previousSibling){var e,r,n,i,c=t.previousSibling,a=c.getAttribute(&quot;data-cfemail&quot;);if(a){for(e=&quot;&quot;,r=parseInt(a.substr(0,2),16),n=2;a.length-n;n+=2)i=parseInt(a.substr(n,2),16)^r,e+=String.fromCharCode(i);e=document.createTextNode(e),c.parentNode.replaceChild(e,c)}}}catch(u){}}();/* ]]&gt; */&lt;/script&gt;\nFormat settings, CABAC           : Yes\nFormat settings, ReFrames        : 11 frames\nFormat settings, GOP             : M=6, N=32\nCodec ID                         : V_MPEG4/ISO/AVC\nDuration                         : 2h 15mn\nBit rate                         : 2 020 Kbps\nWidth                            : 700 pixels\nHeight                           : 472 pixels\nDisplay aspect ratio             : 4:3\nFrame rate                       : 29.970 fps\nColor space                      : YUV\nChroma subsampling               : 4:2:0\nBit depth                        : 8 bits\nScan type                        : Progressive\nBits/(Pixel*Frame)               : 0.204\nStream size                      : 1.88 GiB (89%)\nWriting library                  : x264 core 120\nEncoding settings                : cabac=1 // deblock=1:-2:-2 / analyse=0x3:0x133 / me=umh / subme=11 / psy=1 / psy_rd=1.00:0.00 // me_range=32 / chroma_me=1 / trellis=2 / 8x8dct=1 / cqm=0 / deadzone=21,11 / fast_pskip=1 / chroma_qp_offset=-2 / threads=3 / sliced_threads=0 / nr=0 / decimate=1 / interlaced=0 / bluray_compat=0 / constrained_intra=0 / bframes=9 / b_pyramid=2 / b_adapt=2 / b_bias=0 / direct=3 / weightb=1 / open_gop=0 / weightp=1 / keyint=300 / keyint_min=30 / scenecut=40 / intra_refresh=0 / rc_lookahead=60 / rc=abr / mbtree=1 / bitrate=2020 / ratetol=1.0 / qcomp=0.60 / qpmin=3 / qpmax=69 / qpstep=4 / ip_ratio=1.40 / aq=2:1.20\nLanguage                         : English\nColor primaries                  : BT.601-6 525, BT.1358 525, BT.1700 NTSC, SMPTE 170M\nTransfer characteristics         : BT.709-5, BT.1361\nMatrix coefficients              : BT.601-6 525, BT.1358 525, BT.1700 NTSC, SMPTE 170M\n\nAudio\nID                               : 2\nFormat                           : AC-3\nFormat/Info                      : Audio Coding 3\nMode extension                   : CM (complete main)\nCodec ID                         : A_AC3\nDuration                         : 2h 15mn\nBit rate mode                    : Constant\nBit rate                         : 192 Kbps\nChannel(s)                       : 2 channels\nChannel positions                : Front: L R\nSampling rate                    : 48.0 KHz\nBit depth                        : 16 bits\nCompression mode                 : Lossy\nStream size                      : 186 MiB (9%)\nLanguage                         : English\n\nText #1\nID                               : 3\nFormat                           : VobSub\nCodec ID                         : S_VOBSUB\nCodec ID/Info                    : The same subtitle format used on DVDs\nLanguage                         : French\n\nText #2\nID                               : 4\nFormat                           : VobSub\nCodec ID                         : S_VOBSUB\nCodec ID/Info                    : The same subtitle format used on DVDs\nLanguage                         : English\n\nText #3\nID                               : 5\nFormat                           : VobSub\nCodec ID                         : S_VOBSUB\nCodec ID/Info                    : The same subtitle format used on DVDs\nLanguage                         : Lithuanian\n\n\n***\n\n\nGeneral\nComplete name                    : As.I.Was.Moving.Ahead.Occasionally.I.Saw.Brief.Glimpses.of.Beauty.2000.Reels.7-12.DVDRip.x264.mkv\nFormat                           : Matroska\nFile size                        : 2.17 GiB\nDuration                         : 2h 30mn\nOverall bit rate                 : 2 067 Kbps\nWriting application              : HandBrake 0.9.6\nWriting library                  : libmkv 0.6.5\n\nVideo\nID                               : 1\nFormat                           : AVC\nFormat/Info                      : Advanced Video Codec\nFormat profile                   : &lt;a class=&quot;__cf_email__&quot; href=&quot;/cdn-cgi/l/email-protection&quot; data-cfemail=&quot;622a0b050a222e514c53&quot;&gt;[email&amp;#160;protected]&lt;/a&gt;&lt;script cf-hash='f9e31' type=&quot;text/javascript&quot;&gt;\n/* &lt;![CDATA[ */!function(){try{var t=&quot;currentScript&quot;in document?document.currentScript:function(){for(var t=document.getElementsByTagName(&quot;script&quot;),e=t.length;e--;)if(t[e].getAttribute(&quot;cf-hash&quot;))return t[e]}();if(t&amp;&amp;t.previousSibling){var e,r,n,i,c=t.previousSibling,a=c.getAttribute(&quot;data-cfemail&quot;);if(a){for(e=&quot;&quot;,r=parseInt(a.substr(0,2),16),n=2;a.length-n;n+=2)i=parseInt(a.substr(n,2),16)^r,e+=String.fromCharCode(i);e=document.createTextNode(e),c.parentNode.replaceChild(e,c)}}}catch(u){}}();/* ]]&gt; */&lt;/script&gt;\nFormat settings, CABAC           : Yes\nFormat settings, ReFrames        : 11 frames\nFormat settings, GOP             : M=6, N=32\nCodec ID                         : V_MPEG4/ISO/AVC\nDuration                         : 2h 30mn\nBit rate                         : 1 870 Kbps\nWidth                            : 702 pixels\nHeight                           : 476 pixels\nDisplay aspect ratio             : 4:3\nOriginal display aspect ratio    : 4:3\nFrame rate                       : 29.970 fps\nColor space                      : YUV\nChroma subsampling               : 4:2:0\nBit depth                        : 8 bits\nScan type                        : Progressive\nBits/(Pixel*Frame)               : 0.187\nStream size                      : 1.93 GiB (89%)\nWriting library                  : x264 core 120\nEncoding settings                : cabac=1 // deblock=1:-2:-2 / analyse=0x3:0x133 / me=umh / subme=11 / psy=1 / psy_rd=1.00:0.00 // me_range=32 / chroma_me=1 / trellis=2 / 8x8dct=1 / cqm=0 / deadzone=21,11 / fast_pskip=1 / chroma_qp_offset=-2 / threads=3 / sliced_threads=0 / nr=0 / decimate=1 / interlaced=0 / bluray_compat=0 / constrained_intra=0 / bframes=9 / b_pyramid=2 / b_adapt=2 / b_bias=0 / direct=3 / weightb=1 / open_gop=0 / weightp=1 / keyint=300 / keyint_min=30 / scenecut=40 / intra_refresh=0 / rc_lookahead=60 / rc=abr / mbtree=1 / bitrate=1870 / ratetol=1.0 / qcomp=0.60 / qpmin=3 / qpmax=69 / qpstep=4 / ip_ratio=1.40 / aq=2:1.20\nLanguage                         : English\nColor primaries                  : BT.601-6 525, BT.1358 525, BT.1700 NTSC, SMPTE 170M\nTransfer characteristics         : BT.709-5, BT.1361\nMatrix coefficients              : BT.601-6 525, BT.1358 525, BT.1700 NTSC, SMPTE 170M\n\nAudio\nID                               : 2\nFormat                           : AC-3\nFormat/Info                      : Audio Coding 3\nMode extension                   : CM (complete main)\nCodec ID                         : A_AC3\nDuration                         : 2h 30mn\nBit rate mode                    : Constant\nBit rate                         : 192 Kbps\nChannel(s)                       : 2 channels\nChannel positions                : Front: L R\nSampling rate                    : 48.0 KHz\nBit depth                        : 16 bits\nCompression mode                 : Lossy\nStream size                      : 206 MiB (9%)\nLanguage                         : English\n\nText #1\nID                               : 3\nFormat                           : VobSub\nCodec ID                         : S_VOBSUB\nCodec ID/Info                    : The same subtitle format used on DVDs\nLanguage                         : French\n\nText #2\nID                               : 4\nFormat                           : VobSub\nCodec ID                         : S_VOBSUB\nCodec ID/Info                    : The same subtitle format used on DVDs\nLanguage                         : English\n\nText #3\nID                               : 5\nFormat                           : VobSub\nCodec ID                         : S_VOBSUB\nCodec ID/Info                    : The same subtitle format used on DVDs\nLanguage                         : Lithuanian\n","torrent":{"xt":"urn:btih:bbb2ee9ea7fe72a87ff7f3a7ec79fe3b34f934dd","amp;dn":"As+I+Was+Moving+Ahead...+%28Jonas+Mekas%2C+2000%29","amp;tr":["udp%3A%2F%2Ftracker.openbittorrent.com%3A80","udp%3A%2F%2Fopen.demonii.com%3A1337","udp%3A%2F%2Ftracker.coppersurfer.tk%3A6969","udp%3A%2F%2Fexodus.desync.com%3A6969"],"infoHash":"bbb2ee9ea7fe72a87ff7f3a7ec79fe3b34f934dd","infoHashBuffer":{"type":"Buffer","data":[187,178,238,158,167,254,114,168,127,247,243,167,236,121,254,59,52,249,52,221]},"announce":[],"urlList":[]}}